<svg height="512pt" viewBox="0 0 512 512" width="512pt" xmlns="http://www.w3.org/2000/svg"><path d="m512 256c0 141.386719-114.613281 256-256 256s-256-114.613281-256-256 114.613281-256 256-256 256 114.613281 256 256zm0 0" fill="#ff8597"/><path d="m504.621094 317.1875-248.621094-248.621094v443.433594c120.292969 0 221.191406-82.976562 248.621094-194.8125zm0 0" fill="#ff3636"/><path d="m224.855469 320.652344v189.457031c10.210937 1.238281 20.601562 1.890625 31.144531 1.890625 1.355469 0 2.703125-.03125 4.054688-.050781l11.515624-81.332031-15.570312-109.964844zm0 0" fill="#a24603"/><path d="m256 512c10.542969 0 20.933594-.652344 31.144531-1.890625v-189.457031h-31.144531zm0 0" fill="#6f2e02"/><path d="m224.855469 320.652344s-51.375-32.453125-51.375-70.652344 44.976562-135.226562 63.75-158.332031c18.769531-23.101563 18.769531-23.101563 18.769531-23.101563l23.398438 153.175782-23.398438 111.472656zm0 0" fill="#7ca1b1"/><path d="m287.144531 320.652344s51.375-32.453125 51.375-70.652344-44.976562-135.226562-63.75-158.332031c-18.769531-23.101563-18.769531-23.101563-18.769531-23.101563v264.648438zm0 0" fill="#005285"/><path d="m245.714844 330.757812-49.667969-85.21875 20.867187-73.085937 39.085938-76.042969 7 118.433594-7 109.671875zm0 0" fill="#a2d8f4"/><path d="m266.285156 330.757812 49.671875-85.21875-20.871093-73.085937-39.085938-76.042969v228.105469zm0 0" fill="#27b2eb"/><path d="m255.980469 320.652344h-31.628907c-2.667968 0-4.851562 2.183594-4.851562 4.851562 0 2.667969 2.183594 4.851563 4.851562 4.851563-2.667968 0-4.851562 2.179687-4.851562 4.851562 0 2.667969 2.183594 4.851563 4.851562 4.851563-2.667968 0-4.851562 2.179687-4.851562 4.851562 0 2.667969 2.183594 4.851563 4.851562 4.851563-2.667968 0-4.851562 2.179687-4.851562 4.847656s2.183594 4.855469 4.851562 4.855469c-2.667968 0-4.851562 2.179687-4.851562 4.847656s2.183594 4.851562 4.851562 4.851562c-2.667968 0-4.851562 2.183594-4.851562 4.851563s2.183594 4.851563 4.851562 4.851563h31.800782l3.914062-29zm0 0" fill="#5bc980"/><path d="m292.5 335.203125c0-2.667969-2.183594-4.851563-4.851562-4.851563 2.667968 0 4.851562-2.179687 4.851562-4.847656 0-2.667968-2.183594-4.855468-4.851562-4.855468h-31.648438v58.214843h31.648438c2.667968 0 4.851562-2.179687 4.851562-4.847656s-2.183594-4.855469-4.851562-4.855469c2.667968 0 4.851562-2.179687 4.851562-4.847656s-2.183594-4.851562-4.851562-4.851562c2.667968 0 4.851562-2.183594 4.851562-4.851563s-2.183594-4.851563-4.851562-4.851563c2.667968 0 4.851562-2.183593 4.851562-4.851562s-2.183594-4.851562-4.851562-4.851562c2.667968 0 4.851562-2.183594 4.851562-4.851563zm0 0" fill="#009954"/></svg>